<svg xmlns="http://www.w3.org/2000/svg" xmlns:xlink="http://www.w3.org/1999/xlink" id="streampark" x="0" y="0" version="1.1" viewBox="0 0 283.8 74.5" xml:space="preserve" style="enable-background:new 0 0 283.8 74.5"><style type="text/css">.st0{fill:#dcdddd;stroke:#dcdddd;stroke-width:.5}.st0,.st1,.st2{stroke-miterlimit:10}.st1{fill:#efefef;stroke:#efefef;stroke-width:.25}.st2{display:none;fill:#fff;stroke:#fff;stroke-width:.5}.st3{fill:url(#SVGID_1_)}.st68{fill:#efefef}.st69{font-family:&apos;OriyaSangamMN&apos;}.st70{font-size:12.3617px}</style><path d="M127.9,50.6c0,0.9-0.2,1.7-0.5,2.4c-0.3,0.7-0.8,1.3-1.4,1.9c-0.6,0.5-1.2,0.9-2,1.2c-0.7,0.3-1.5,0.4-2.3,0.4	c-0.6,0-1.3-0.1-2-0.2c-0.7-0.2-1.3-0.4-1.9-0.8c-0.6-0.4-1.1-0.9-1.5-1.6c-0.4-0.7-0.7-1.5-0.7-2.5h0.9c0.1,1,0.4,1.8,0.8,2.4	c0.4,0.6,0.9,1,1.4,1.3c0.5,0.3,1,0.5,1.6,0.6c0.6,0.1,1,0.1,1.4,0.1c0.7,0,1.3-0.1,2-0.4c0.6-0.2,1.2-0.6,1.7-1	c0.5-0.4,0.9-1,1.2-1.6s0.5-1.3,0.5-2.1c0-1-0.2-1.8-0.6-2.4s-0.8-1.1-1.4-1.5c-0.6-0.4-1.1-0.7-1.8-0.9c-0.6-0.2-1.2-0.4-1.7-0.5	c-0.5-0.1-1-0.3-1.6-0.5c-0.6-0.2-1.2-0.5-1.8-0.9c-0.6-0.4-1.1-0.9-1.5-1.5c-0.4-0.6-0.6-1.5-0.6-2.4v-0.1c0-0.9,0.2-1.6,0.5-2.3	c0.3-0.7,0.7-1.2,1.3-1.7c0.5-0.5,1.1-0.8,1.8-1.1s1.4-0.4,2.2-0.4c0.6,0,1.3,0.1,1.9,0.4s1.2,0.6,1.8,1.2c0.5,0.5,1,1.3,1.3,2.1	c0.3,0.9,0.5,2,0.5,3.3h-0.9c0-0.8-0.1-1.6-0.2-2.3c-0.2-0.7-0.4-1.4-0.8-2c-0.4-0.6-0.9-1-1.4-1.4c-0.6-0.3-1.3-0.5-2.2-0.5	c-0.7,0-1.3,0.1-1.9,0.3c-0.6,0.2-1.1,0.5-1.5,0.9c-0.4,0.4-0.8,0.9-1,1.5c-0.2,0.6-0.4,1.2-0.4,1.9c0,0.8,0.2,1.5,0.5,2.1	c0.3,0.5,0.7,1,1.3,1.4c0.5,0.4,1.1,0.7,1.8,0.9c0.7,0.2,1.4,0.4,2.1,0.6c0.2,0,0.4,0.1,0.7,0.2c0.3,0.1,0.7,0.2,1.1,0.4	c0.4,0.2,0.8,0.4,1.2,0.6c0.4,0.3,0.8,0.6,1.1,1c0.3,0.4,0.6,0.9,0.8,1.5C127.8,49.2,127.9,49.9,127.9,50.6z" class="st0"/><path d="M121.8,57c-0.7,0-1.4-0.1-2.1-0.3c-0.7-0.2-1.4-0.5-2.1-0.9c-0.6-0.4-1.2-1-1.6-1.7c-0.4-0.7-0.7-1.6-0.8-2.7	l0-0.5h1.7l0,0.4c0.1,0.9,0.4,1.7,0.7,2.2c0.4,0.5,0.8,0.9,1.2,1.2c0.5,0.3,0.9,0.4,1.4,0.5c0.5,0.1,1,0.1,1.4,0.1	c0.6,0,1.2-0.1,1.8-0.3c0.6-0.2,1.1-0.5,1.6-0.9c0.4-0.4,0.8-0.9,1.1-1.5c0.3-0.6,0.4-1.2,0.4-1.9c0-0.9-0.2-1.6-0.5-2.2	c-0.3-0.6-0.8-1-1.3-1.4c-0.5-0.4-1.1-0.6-1.6-0.8c-0.6-0.2-1.2-0.3-1.7-0.5c-0.5-0.1-1-0.3-1.7-0.5c-0.7-0.2-1.3-0.5-1.9-0.9	c-0.6-0.4-1.1-1-1.6-1.7c-0.4-0.7-0.7-1.6-0.7-2.7c0-1,0.2-1.8,0.5-2.6c0.3-0.7,0.8-1.4,1.4-1.9c0.6-0.5,1.2-0.9,2-1.1	c1.4-0.5,2.9-0.6,4.4,0c0.7,0.3,1.3,0.7,1.9,1.3c0.6,0.6,1,1.3,1.4,2.3c0.3,0.9,0.5,2.1,0.5,3.4v0.4H126v-0.4c0-0.8-0.1-1.5-0.2-2.3	c-0.1-0.7-0.4-1.3-0.7-1.8c-0.3-0.5-0.8-0.9-1.3-1.2c-0.5-0.3-1.2-0.4-2-0.4c-0.6,0-1.2,0.1-1.7,0.3c-0.5,0.2-1,0.5-1.4,0.8	c-0.4,0.4-0.7,0.8-0.9,1.3c-0.2,0.5-0.3,1.1-0.3,1.7c0,0.8,0.1,1.4,0.4,1.9c0.3,0.5,0.7,0.9,1.1,1.2c0.5,0.3,1.1,0.6,1.7,0.8	c0.7,0.2,1.4,0.4,2.1,0.6c0.2,0,0.4,0.1,0.7,0.2c0.3,0.1,0.7,0.2,1.1,0.4c0.4,0.2,0.8,0.4,1.3,0.7c0.4,0.3,0.9,0.7,1.2,1.1	c0.4,0.4,0.7,1,0.9,1.6c0.2,0.6,0.3,1.3,0.3,2.1c0,0.9-0.2,1.8-0.6,2.6c-0.4,0.8-0.9,1.4-1.5,2c-0.6,0.6-1.3,1-2.1,1.3	C123.4,56.8,122.6,57,121.8,57z M116.2,51.8c0.1,0.7,0.3,1.4,0.6,1.8c0,0,0,0.1,0.1,0.1C116.5,53.3,116.3,52.6,116.2,51.8	L116.2,51.8z M124.7,46.1c0.2,0.1,0.5,0.3,0.7,0.4c0.6,0.4,1.1,1,1.5,1.6c0.4,0.7,0.6,1.6,0.6,2.6c0,0,0,0.1,0,0.1	c0-0.1,0-0.2,0-0.2c0-0.7-0.1-1.3-0.3-1.9c-0.2-0.5-0.4-1-0.7-1.3c-0.3-0.4-0.6-0.7-1-0.9C125.2,46.4,124.9,46.2,124.7,46.1z M116.6,39.3c0,0.3-0.1,0.5-0.1,0.8c0,1,0.2,1.7,0.6,2.3c0.4,0.6,0.8,1.1,1.3,1.4c0,0,0.1,0.1,0.1,0.1c0,0-0.1,0-0.1-0.1	c-0.6-0.4-1.1-0.9-1.4-1.5c-0.4-0.6-0.5-1.4-0.5-2.3C116.6,39.8,116.6,39.6,116.6,39.3z M126.9,41.2L126.9,41.2	c0-0.7-0.1-1.3-0.2-1.8C126.8,40,126.9,40.6,126.9,41.2z" class="st1"/><path d="M134,41.8v14.4h-0.8V41.8h-3.3V41h3.3v-6h0.8v6h3.9v0.7H134z" class="st0"/><polygon points="134.4 56.6 132.8 56.6 132.8 42.2 129.4 42.2 129.4 40.6 132.8 40.6 132.8 34.6 134.4 34.6 134.4 40.6 138.3 40.6 138.3 42.2 134.4 42.2" class="st1"/><path d="M148,41.4h-5.3v14.7h-0.8l0-15.5c3.7,0,5.8,0,6.1,0V41.4z" class="st0"/><path d="M143.1,56.6h-1.7l0-16.3h0.4c3.7,0,5.8,0,6.1,0l0.5,0v1.7h-5.3V56.6z" class="st1"/><path d="M165.8,48.7h-15.1c0,1.2,0.3,2.3,0.7,3.2c0.5,0.9,1.1,1.6,1.8,2.2c0.7,0.6,1.5,1,2.3,1.3	c0.8,0.3,1.6,0.4,2.4,0.4c1.4,0,2.7-0.3,3.8-1s2-1.7,2.6-3h0.9c-0.3,0.8-0.8,1.5-1.3,2.1c-0.5,0.6-1.1,1.1-1.8,1.5	c-0.6,0.4-1.3,0.7-2.1,0.9c-0.7,0.2-1.5,0.3-2.2,0.3c-1.2,0-2.2-0.2-3.2-0.6c-1-0.4-1.8-1-2.5-1.7c-0.7-0.7-1.3-1.5-1.7-2.5	c-0.4-1-0.6-2-0.6-3.1c0-1.1,0.2-2.2,0.6-3.2c0.4-1,1-1.8,1.7-2.5c0.7-0.7,1.6-1.3,2.5-1.7c1-0.4,2-0.6,3.1-0.6c1,0,2,0.2,2.9,0.5	c0.9,0.4,1.8,0.9,2.5,1.5c0.7,0.7,1.3,1.5,1.8,2.4s0.7,2,0.8,3.2L165.8,48.7z M165,47.9c0-0.9-0.3-1.8-0.7-2.6	c-0.4-0.8-0.9-1.5-1.6-2.1c-0.6-0.6-1.4-1.1-2.2-1.4c-0.8-0.3-1.7-0.5-2.6-0.5c-1,0-1.9,0.2-2.7,0.5c-0.9,0.3-1.6,0.8-2.3,1.4	c-0.6,0.6-1.2,1.3-1.6,2.1c-0.4,0.8-0.6,1.7-0.7,2.6H165z" class="st0"/><path d="M157.9,57c-1.2,0-2.3-0.2-3.4-0.6c-1-0.4-1.9-1-2.6-1.8c-0.7-0.7-1.3-1.6-1.7-2.6c-0.4-1-0.6-2.1-0.6-3.3	c0-1.2,0.2-2.3,0.6-3.3c0.4-1,1-1.9,1.8-2.7c0.7-0.7,1.6-1.3,2.7-1.8c2-0.8,4.3-0.9,6.4-0.1c1,0.4,1.9,0.9,2.6,1.6	c0.8,0.7,1.4,1.5,1.9,2.5c0.5,1,0.7,2.1,0.8,3.3l-0.1,0.9h-15c0.1,1,0.3,1.8,0.7,2.6c0.4,0.8,1,1.5,1.7,2.1c0.7,0.5,1.4,1,2.2,1.2	c2.3,0.8,4.2,0.4,5.9-0.6c1.1-0.6,1.9-1.6,2.5-2.8l0.1-0.2h1.8l-0.3,0.6c-0.4,0.8-0.8,1.6-1.4,2.2c-0.6,0.6-1.2,1.2-1.9,1.6	c-0.7,0.4-1.4,0.7-2.2,0.9C159.4,56.9,158.6,57,157.9,57z M151.2,47.5h13.3c-0.1-0.7-0.3-1.3-0.6-1.9c-0.4-0.7-0.9-1.4-1.5-2	c-0.6-0.6-1.3-1-2.1-1.3c-1.6-0.7-3.5-0.6-5,0c-0.8,0.3-1.5,0.7-2.1,1.3c-0.6,0.6-1.1,1.2-1.5,2C151.5,46.2,151.3,46.8,151.2,47.5z" class="st1"/><path d="M185.1,56.2v-3.8H185c-0.7,1.3-1.6,2.3-2.8,3c-1.2,0.7-2.6,1.1-4.2,1.1c-1.2,0-2.4-0.2-3.3-0.7	c-1-0.4-1.8-1-2.5-1.8c-0.7-0.7-1.2-1.6-1.6-2.5c-0.4-1-0.5-1.9-0.5-3c0-1,0.2-2,0.6-3c0.4-1,0.9-1.8,1.6-2.5	c0.7-0.7,1.5-1.3,2.5-1.8c1-0.4,2.1-0.7,3.3-0.7h7.9v15.5H185.1z M185.1,41.4H178c-1,0-1.9,0.2-2.8,0.5c-0.9,0.4-1.6,0.8-2.3,1.5	c-0.7,0.6-1.2,1.4-1.5,2.3c-0.4,0.9-0.6,1.9-0.6,2.9c0,0.9,0.1,1.7,0.4,2.6s0.7,1.6,1.3,2.3c0.6,0.7,1.4,1.2,2.3,1.7	c0.9,0.4,2,0.6,3.2,0.6c1,0,2-0.2,2.9-0.6c0.9-0.4,1.6-0.9,2.2-1.6c0.6-0.7,1.1-1.4,1.5-2.3C185,50.5,185.1,47.2,185.1,41.4z" class="st0"/><path d="M178,57c-1.3,0-2.5-0.2-3.5-0.7c-1-0.5-1.9-1.1-2.6-1.9s-1.3-1.7-1.7-2.7c-0.4-1-0.6-2-0.6-3.1	c0-1.1,0.2-2.2,0.6-3.2c0.4-1,1-1.9,1.7-2.7c0.7-0.8,1.6-1.4,2.6-1.9c1-0.5,2.2-0.7,3.5-0.7h8.3v16.4h-1.7v-2.8	c-0.6,0.8-1.3,1.5-2.2,2C181.2,56.6,179.7,57,178,57z M178,41.8c-0.9,0-1.8,0.2-2.6,0.5c-0.8,0.3-1.5,0.8-2.1,1.4	c-0.6,0.6-1.1,1.3-1.4,2.1c-0.3,0.8-0.5,1.8-0.5,2.8c0,0.8,0.1,1.6,0.4,2.4c0.3,0.8,0.7,1.5,1.3,2.2c0.6,0.6,1.3,1.2,2.1,1.6	c0.9,0.4,1.9,0.6,3,0.6c1,0,1.9-0.2,2.7-0.5c0.8-0.4,1.5-0.8,2.1-1.5c0.6-0.6,1-1.3,1.4-2.2c0.2-0.6,0.5-2.6,0.4-9.4H178z M184.9,52	l0.6,0v-4c-0.1,2.4-0.3,3.2-0.4,3.5C185,51.7,184.9,51.8,184.9,52z" class="st1"/><path d="M212.8,56.2v-8.5c0-1-0.1-2-0.3-2.9c-0.2-0.9-0.6-1.6-1.2-2.1c-0.8-0.9-2-1.3-3.5-1.3c-0.7,0-1.4,0.1-2.1,0.4	c-0.7,0.3-1.3,0.7-1.8,1.3c-0.2,0.3-0.4,0.6-0.6,0.9c-0.2,0.3-0.3,0.6-0.4,0.9c-0.1,0.3-0.1,0.7-0.2,1.2c0,0.4,0,0.9,0,1.5v8.5h-0.8	v-8.5c0-1.2-0.1-2.1-0.3-2.7s-0.4-1.2-0.8-1.7c-0.4-0.6-1-1-1.7-1.3c-0.7-0.3-1.5-0.5-2.4-0.5h-5v14.8h-0.8V40.7h5.9	c0.9,0,1.8,0.2,2.5,0.5c0.8,0.3,1.4,0.8,1.9,1.4c0.2,0.2,0.4,0.5,0.6,0.8c0.2,0.3,0.3,0.6,0.4,1h0.1c0.1-0.2,0.2-0.5,0.3-0.8	c0.2-0.3,0.4-0.6,0.7-1c0.5-0.6,1.2-1,2-1.4c0.8-0.3,1.6-0.5,2.4-0.5c0.9,0,1.7,0.1,2.4,0.4c0.7,0.3,1.3,0.6,1.7,1.1	c0.6,0.6,1.1,1.4,1.3,2.3c0.3,1,0.4,2,0.4,3.2v8.5H212.8z" class="st0"/><path d="M214.1,56.6h-1.7v-8.9c0-1-0.1-1.9-0.3-2.7c-0.2-0.8-0.6-1.4-1.1-2c-0.7-0.8-1.8-1.2-3.2-1.2	c-0.6,0-1.3,0.1-1.9,0.4c-0.7,0.2-1.2,0.6-1.6,1.2c-0.2,0.3-0.4,0.6-0.6,0.9c-0.1,0.3-0.2,0.5-0.3,0.8c-0.1,0.3-0.1,0.7-0.2,1.1	c0,0.4,0,0.9,0,1.5v8.9h-1.7v-8.9c0-1.1-0.1-2-0.2-2.6c-0.2-0.6-0.4-1.1-0.8-1.6c-0.4-0.5-0.9-0.9-1.6-1.2c-0.7-0.3-1.4-0.4-2.2-0.4	h-4.6v14.8h-1.7V40.2h6.3c1,0,1.9,0.2,2.7,0.5c0.8,0.3,1.5,0.8,2.1,1.5c0.2,0.3,0.4,0.6,0.6,0.9c0,0.1,0.1,0.1,0.1,0.2	c0.2-0.3,0.4-0.7,0.8-1c0.6-0.6,1.3-1.1,2.1-1.5c1.7-0.7,3.7-0.6,5.2-0.1c0.7,0.3,1.4,0.7,1.9,1.2c0.7,0.7,1.2,1.5,1.5,2.5	c0.3,1,0.4,2.1,0.4,3.3V56.6z M202,44.7c0,0,0,0.1,0,0.1c0.1,0.5,0.2,1,0.2,1.7c0-0.1,0-0.3,0-0.4c0-0.4,0.1-0.9,0.2-1.2	c0-0.1,0-0.1,0-0.2H202z" class="st1"/><path d="M230.9,41c0,2.6-0.6,4.5-1.9,5.6c-1.2,1.1-3.1,1.7-5.6,1.7h-4.1v7.9h-0.9V35h4.9c0.6,0,1.2,0,1.7,0.1	c0.5,0,1,0.1,1.4,0.2c0.4,0.1,0.8,0.2,1.2,0.4c0.4,0.2,0.7,0.4,1.1,0.6c0.6,0.5,1.1,1.1,1.5,2C230.7,39.2,230.9,40.1,230.9,41z M230.1,41.1c0-0.8-0.2-1.6-0.5-2.4s-0.7-1.3-1.3-1.7c-0.3-0.2-0.6-0.4-0.9-0.6c-0.3-0.1-0.7-0.3-1-0.4c-0.4-0.1-0.8-0.2-1.3-0.2	c-0.5,0-1-0.1-1.6-0.1h-4.1v11.7h4.1c2.3,0,3.9-0.5,5-1.5C229.6,45.1,230.1,43.4,230.1,41.1z" class="st0"/><path d="M219.9,56.6h-1.7v-22h5.3c0.6,0,1.2,0,1.7,0.1c0.5,0,1,0.1,1.4,0.2c0.4,0.1,0.9,0.2,1.3,0.4	c0.4,0.2,0.8,0.4,1.1,0.7c0.7,0.5,1.3,1.2,1.7,2.2c0.4,0.9,0.6,1.9,0.6,2.9c0,2.7-0.7,4.7-2,5.9c-1.3,1.2-3.3,1.8-5.8,1.8h-3.6V56.6	z M219,55.7L219,55.7V35.5V55.7z M219.9,47.1h3.7c2.1,0,3.7-0.5,4.7-1.4c1-0.9,1.4-2.5,1.4-4.7c0-0.8-0.1-1.5-0.4-2.2	c-0.3-0.7-0.7-1.2-1.1-1.5c-0.3-0.2-0.6-0.4-0.9-0.5c-0.3-0.1-0.6-0.2-1-0.3c-0.3-0.1-0.7-0.1-1.2-0.2c-0.5,0-1-0.1-1.5-0.1h-3.7	V47.1z M230.3,39.4c0.1,0.5,0.2,1.1,0.2,1.7c0,0.6,0,1.2-0.1,1.8c0.1-0.6,0.1-1.2,0.1-1.8C230.5,40.5,230.4,39.9,230.3,39.4z" class="st1"/><path d="M269.3,33.4h-5.6v15.5h-0.8l0-16.2c3.9,0,6.1,0,6.4,0V33.4z" class="st2"/><path d="M253.4,56.6h-1.7l0-16.3h0.4c3.7,0,5.8,0,6.1,0l0.5,0v1.7h-5.3V56.6z" class="st1"/><path d="M273.2,56.2l-5.9-7.5l-4.3,4.7v2.8h-0.8V35h0.8v17h0.1l9.7-11h1.1l-5.9,7l6.4,8.1H273.2z" class="st0"/><path d="M275.2,56.6H273l-5.7-7.3l-3.9,4.2v3h-1.7v-22h1.7V51l9.1-10.4h2.2l-6.3,7.4L275.2,56.6z M262.6,52.4v0.8	l0.1-0.1l4.6-5.1l0,0l4.2-4.9l-8.2,9.4L262.6,52.4z" class="st1"/><g><linearGradient id="SVGID_1_" x1="5.142" x2="103.989" y1="75.559" y2="75.559" gradientTransform="matrix(1 0 0 -1 0 91.2365)" gradientUnits="userSpaceOnUse"><stop offset="0" style="stop-color:#1fd3ff"/><stop offset="1" style="stop-color:#a43efa"/></linearGradient><circle cx="36.3" cy="15.7" r="1" class="st3"/><linearGradient id="SVGID_00000155105212065198354800000004742222349153419153_" x1="5.142" x2="103.989" y1="74.634" y2="74.634" gradientTransform="matrix(1 0 0 -1 0 91.2365)" gradientUnits="userSpaceOnUse"><stop offset="0" style="stop-color:#1fd3ff"/><stop offset="1" style="stop-color:#a43efa"/></linearGradient><circle style="fill:url(#SVGID_00000155105212065198354800000004742222349153419153_)" cx="52.3" cy="16.6" r="1"/><linearGradient id="SVGID_00000163053790402554054560000017068307594313456781_" x1="5.142" x2="103.989" y1="76.053" y2="76.053" gradientTransform="matrix(1 0 0 -1 0 91.2365)" gradientUnits="userSpaceOnUse"><stop offset="0" style="stop-color:#1fd3ff"/><stop offset="1" style="stop-color:#a43efa"/></linearGradient><circle style="fill:url(#SVGID_00000163053790402554054560000017068307594313456781_)" cx="44.2" cy="15.2" r="1"/><g><g><linearGradient id="SVGID_00000103956153013152601710000010053377245514123155_" x1="40.428" x2="70.896" y1="87.998" y2="45.126" gradientTransform="matrix(1 0 0 -1 0 91.2365)" gradientUnits="userSpaceOnUse"><stop offset="0" style="stop-color:#1fd3ff"/><stop offset=".78" style="stop-color:#a43efa"/><stop offset=".998" style="stop-color:#09f"/></linearGradient><path style="fill:url(#SVGID_00000103956153013152601710000010053377245514123155_)" d="M84.4,16.6C72,17.8,61.1,31.8,53.2,41.9 c-3.3,4.2-6.9,7.4-10.8,9.5L42,51.7c-0.3,0.2-0.6,0.3-0.9,0.5l0.5,1.1c0.4-0.2,0.7-0.4,1-0.5l0.4-0.2c4-2.2,7.7-5.5,11.1-9.8 c7.8-10,18.5-23.8,30.4-24.9L84.4,16.6z"/><linearGradient id="SVGID_00000144320860809794861900000011387325327237004214_" x1="43.833" x2="74.301" y1="90.418" y2="47.546" gradientTransform="matrix(1 0 0 -1 0 91.2365)" gradientUnits="userSpaceOnUse"><stop offset="0" style="stop-color:#1fd3ff"/><stop offset=".78" style="stop-color:#a43efa"/><stop offset=".998" style="stop-color:#09f"/></linearGradient><path style="fill:url(#SVGID_00000144320860809794861900000011387325327237004214_)" d="M72.9,29.2c-3.4,3.8-7,8.3-9.7,11.9 l0.9,0.7c2.7-3.5,6.2-8,9.6-11.8L72.9,29.2z"/><linearGradient id="SVGID_00000132086651702436813830000002195720600797131149_" x1="20.238" x2="50.706" y1="73.65" y2="30.777" gradientTransform="matrix(1 0 0 -1 0 91.2365)" gradientUnits="userSpaceOnUse"><stop offset="0" style="stop-color:#1fd3ff"/><stop offset=".78" style="stop-color:#a43efa"/><stop offset=".998" style="stop-color:#09f"/></linearGradient><path style="fill:url(#SVGID_00000132086651702436813830000002195720600797131149_)" d="M58.1,48c-4.3,5.6-7.7,9.1-11.2,11.3 c-3.3,2-6.7,3-10.9,2.9l0,1.2c4.4,0.1,8.1-0.9,11.5-3.1c3.6-2.2,7.2-5.8,11.5-11.6L58.1,48z"/><linearGradient id="SVGID_00000173856172042884833990000016379524473429558405_" x1="38.731" x2="69.199" y1="86.793" y2="43.92" gradientTransform="matrix(1 0 0 -1 0 91.2365)" gradientUnits="userSpaceOnUse"><stop offset="0" style="stop-color:#1fd3ff"/><stop offset=".78" style="stop-color:#a43efa"/><stop offset=".998" style="stop-color:#09f"/></linearGradient><path style="fill:url(#SVGID_00000173856172042884833990000016379524473429558405_)" d="M78.3,20.5C70.5,25,60.1,38.3,56.7,42.7 L56,43.5c-0.3,0.4-0.7,0.9-1.1,1.5c-1.8,2.5-4.4,6.3-8.9,9.1l0.6,1c4.7-2.9,7.5-7,9.2-9.4c0.4-0.6,0.8-1.1,1.1-1.5l0.7-0.9 c3.4-4.3,13.7-17.4,21.3-21.8L78.3,20.5z"/><linearGradient id="SVGID_00000165943810117216927540000004913715657306678450_" x1="38.016" x2="68.484" y1="86.284" y2="43.412" gradientTransform="matrix(1 0 0 -1 0 91.2365)" gradientUnits="userSpaceOnUse"><stop offset="0" style="stop-color:#1fd3ff"/><stop offset=".78" style="stop-color:#a43efa"/><stop offset=".998" style="stop-color:#09f"/></linearGradient><circle style="fill:url(#SVGID_00000165943810117216927540000004913715657306678450_)" cx="63.8" cy="41.3" r="1"/><linearGradient id="SVGID_00000178179962909266253860000011081774268396842173_" x1="49.895" x2="80.363" y1="94.726" y2="51.853" gradientTransform="matrix(1 0 0 -1 0 91.2365)" gradientUnits="userSpaceOnUse"><stop offset="0" style="stop-color:#1fd3ff"/><stop offset=".78" style="stop-color:#a43efa"/><stop offset=".998" style="stop-color:#09f"/></linearGradient><circle style="fill:url(#SVGID_00000178179962909266253860000011081774268396842173_)" cx="73.4" cy="29.6" r="1"/><linearGradient id="SVGID_00000002377257506863939450000009124166951293831307_" x1="31.177" x2="61.645" y1="81.424" y2="38.551" gradientTransform="matrix(1 0 0 -1 0 91.2365)" gradientUnits="userSpaceOnUse"><stop offset="0" style="stop-color:#1fd3ff"/><stop offset=".78" style="stop-color:#a43efa"/><stop offset=".998" style="stop-color:#09f"/></linearGradient><circle style="fill:url(#SVGID_00000002377257506863939450000009124166951293831307_)" cx="58.6" cy="48.4" r="1"/><linearGradient id="SVGID_00000131356255619200544430000000702886622916571836_" x1="20.057" x2="50.525" y1="73.521" y2="30.649" gradientTransform="matrix(1 0 0 -1 0 91.2365)" gradientUnits="userSpaceOnUse"><stop offset="0" style="stop-color:#1fd3ff"/><stop offset=".78" style="stop-color:#a43efa"/><stop offset=".998" style="stop-color:#09f"/></linearGradient><circle style="fill:url(#SVGID_00000131356255619200544430000000702886622916571836_)" cx="50.9" cy="61.2" r="1"/><linearGradient id="SVGID_00000075881893254985093290000010771819726874651794_" x1="57.233" x2="87.701" y1="99.941" y2="57.069" gradientTransform="matrix(1 0 0 -1 0 91.2365)" gradientUnits="userSpaceOnUse"><stop offset="0" style="stop-color:#1fd3ff"/><stop offset=".78" style="stop-color:#a43efa"/><stop offset=".998" style="stop-color:#09f"/></linearGradient><circle style="fill:url(#SVGID_00000075881893254985093290000010771819726874651794_)" cx="78.5" cy="21.2" r="1"/><linearGradient id="SVGID_00000017485297463846955140000009994411756471547570_" x1="5.745" x2="36.212" y1="63.35" y2="20.477" gradientTransform="matrix(1 0 0 -1 0 91.2365)" gradientUnits="userSpaceOnUse"><stop offset="0" style="stop-color:#1fd3ff"/><stop offset=".78" style="stop-color:#a43efa"/><stop offset=".998" style="stop-color:#09f"/></linearGradient><path style="fill:url(#SVGID_00000017485297463846955140000009994411756471547570_)" d="M10.3,49.9l-1,0.5 c5.1,9.8,15.1,15.9,26.1,15.9c3.1,0,6.2-0.5,9.1-1.4l-0.4-1.1c-2.8,0.9-5.7,1.4-8.7,1.4C24.8,65.1,15.2,59.3,10.3,49.9z"/><linearGradient id="SVGID_00000044142055161280273040000005359852109105867655_" x1="21.66" x2="52.128" y1="74.661" y2="31.788" gradientTransform="matrix(1 0 0 -1 0 91.2365)" gradientUnits="userSpaceOnUse"><stop offset="0" style="stop-color:#1fd3ff"/><stop offset=".78" style="stop-color:#a43efa"/><stop offset=".998" style="stop-color:#09f"/></linearGradient><path style="fill:url(#SVGID_00000044142055161280273040000005359852109105867655_)" d="M35.4,7.4C19.1,7.4,5.9,20.6,5.9,36.8 c0,3.3,0.5,6.6,1.6,9.7l1.1-0.4c-1-3-1.6-6.1-1.6-9.3c0-15.6,12.7-28.3,28.3-28.3c8.8,0,16.9,4,22.3,10.9l0.9-0.7 C52.9,11.5,44.5,7.4,35.4,7.4z"/><linearGradient id="SVGID_00000117650360989328957180000004518867174539456130_" x1="2.443" x2="32.91" y1="61.004" y2="18.131" gradientTransform="matrix(1 0 0 -1 0 91.2365)" gradientUnits="userSpaceOnUse"><stop offset="0" style="stop-color:#1fd3ff"/><stop offset=".78" style="stop-color:#a43efa"/><stop offset=".998" style="stop-color:#09f"/></linearGradient><path style="fill:url(#SVGID_00000117650360989328957180000004518867174539456130_)" d="M9.6,36.6H8.5 c0,12.5,8.5,23.2,20.6,26.1l0.3-1.1C17.7,58.8,9.6,48.5,9.6,36.6z"/><linearGradient id="SVGID_00000063627505463703892110000017387712307035349652_" x1="24.434" x2="54.902" y1="76.632" y2="33.76" gradientTransform="matrix(1 0 0 -1 0 91.2365)" gradientUnits="userSpaceOnUse"><stop offset="0" style="stop-color:#1fd3ff"/><stop offset=".78" style="stop-color:#a43efa"/><stop offset=".998" style="stop-color:#09f"/></linearGradient><path style="fill:url(#SVGID_00000063627505463703892110000017387712307035349652_)" d="M35.3,9.8c-12.6,0-23.7,9-26.3,21.3 l1.1,0.2c2.5-11.8,13-20.4,25.1-20.4c6.1,0,12,2.2,16.7,6.1l0.8-0.9C47.8,12.1,41.7,9.8,35.3,9.8z"/><linearGradient id="SVGID_00000183222083500024178960000001971759495539839898_" x1="9.606" x2="40.074" y1="66.094" y2="23.222" gradientTransform="matrix(1 0 0 -1 0 91.2365)" gradientUnits="userSpaceOnUse"><stop offset="0" style="stop-color:#1fd3ff"/><stop offset=".78" style="stop-color:#a43efa"/><stop offset=".998" style="stop-color:#09f"/></linearGradient><path style="fill:url(#SVGID_00000183222083500024178960000001971759495539839898_)" d="M14.2,23.5c-2.2,3.6-3.3,7.7-3.3,12 c0,12.8,10.4,23.2,23.2,23.2c3.1,0,6.2-0.6,9-1.8l-0.4-1.1c-2.7,1.2-5.6,1.7-8.6,1.7c-12.2,0-22-9.9-22-22c0-4,1.1-8,3.2-11.4 L14.2,23.5z"/><linearGradient id="SVGID_00000130636013576550733060000014229732018579978911_" x1="27.825" x2="58.293" y1="79.042" y2="36.169" gradientTransform="matrix(1 0 0 -1 0 91.2365)" gradientUnits="userSpaceOnUse"><stop offset="0" style="stop-color:#1fd3ff"/><stop offset=".78" style="stop-color:#a43efa"/><stop offset=".998" style="stop-color:#09f"/></linearGradient><path style="fill:url(#SVGID_00000130636013576550733060000014229732018579978911_)" d="M34.1,12.3c-6.1,0-11.9,2.4-16.3,6.7 l0.8,0.8c4.2-4.1,9.7-6.4,15.5-6.4c3.5,0,6.8,0.8,9.8,2.3l0.5-1C41.2,13.1,37.8,12.3,34.1,12.3z"/><linearGradient id="SVGID_00000077318993682500460500000014023095944072493202_" x1="11.682" x2="42.149" y1="67.569" y2="24.697" gradientTransform="matrix(1 0 0 -1 0 91.2365)" gradientUnits="userSpaceOnUse"><stop offset="0" style="stop-color:#1fd3ff"/><stop offset=".78" style="stop-color:#a43efa"/><stop offset=".998" style="stop-color:#09f"/></linearGradient><path style="fill:url(#SVGID_00000077318993682500460500000014023095944072493202_)" d="M20.7,48.6l-0.8,0.8 c3.7,3.5,8.6,5.4,13.7,5.4c3.1,0,6-0.7,8.7-2l-0.5-1c-2.6,1.3-5.3,1.9-8.2,1.9C28.8,53.7,24.2,51.9,20.7,48.6z"/><linearGradient id="SVGID_00000016073063959210325230000005161230363944190375_" x1="18.535" x2="49.003" y1="72.44" y2="29.567" gradientTransform="matrix(1 0 0 -1 0 91.2365)" gradientUnits="userSpaceOnUse"><stop offset="0" style="stop-color:#1fd3ff"/><stop offset=".78" style="stop-color:#a43efa"/><stop offset=".998" style="stop-color:#09f"/></linearGradient><path style="fill:url(#SVGID_00000016073063959210325230000005161230363944190375_)" d="M33.6,14.9c-11,0-20,9-20,20 c0,3.1,0.7,6.1,2.1,8.9l1-0.5c-1.3-2.6-2-5.4-2-8.4c0-10.4,8.4-18.8,18.8-18.8c0.9,0,1.9,0.1,2.8,0.2l0.2-1.1 C35.6,15,34.6,14.9,33.6,14.9z"/><linearGradient id="SVGID_00000087388988461563569140000004304035569020850337_" x1="14.44" x2="44.908" y1="69.53" y2="26.657" gradientTransform="matrix(1 0 0 -1 0 91.2365)" gradientUnits="userSpaceOnUse"><stop offset="0" style="stop-color:#1fd3ff"/><stop offset=".78" style="stop-color:#a43efa"/><stop offset=".998" style="stop-color:#09f"/></linearGradient><path style="fill:url(#SVGID_00000087388988461563569140000004304035569020850337_)" d="M17.5,34.4h-1.2c0,9.8,8,17.8,17.8,17.8 c3.9,0,7.5-1.2,10.6-3.5L44,47.7c-2.9,2.2-6.3,3.3-9.9,3.3C25,51,17.5,43.6,17.5,34.4z"/><linearGradient id="SVGID_00000108299984055886142770000009763939356382102195_" x1="19.686" x2="50.154" y1="73.258" y2="30.386" gradientTransform="matrix(1 0 0 -1 0 91.2365)" gradientUnits="userSpaceOnUse"><stop offset="0" style="stop-color:#1fd3ff"/><stop offset=".78" style="stop-color:#a43efa"/><stop offset=".998" style="stop-color:#09f"/></linearGradient><path style="fill:url(#SVGID_00000108299984055886142770000009763939356382102195_)" d="M30,17.1c-1,0.2-2,0.6-2.9,1 c-4.9,2.1-8.6,6.3-10,11.4l1.1,0.3c1.4-4.8,4.8-8.7,9.4-10.7c0.9-0.4,1.8-0.7,2.7-0.9L30,17.1z"/><linearGradient id="SVGID_00000018915552512003879590000011078650277340097433_" x1="15.293" x2="45.761" y1="70.136" y2="27.263" gradientTransform="matrix(1 0 0 -1 0 91.2365)" gradientUnits="userSpaceOnUse"><stop offset="0" style="stop-color:#1fd3ff"/><stop offset=".78" style="stop-color:#a43efa"/><stop offset=".998" style="stop-color:#09f"/></linearGradient><path style="fill:url(#SVGID_00000018915552512003879590000011078650277340097433_)" d="M24.7,21.8c-3.7,3-5.8,7.4-5.8,12.2 c0,8.7,7.1,15.8,15.8,15.8c1.3,0,2.5-0.2,3.7-0.4l-0.3-1.1c-1.1,0.3-2.3,0.4-3.5,0.4c-8,0-14.6-6.5-14.6-14.6 c0-4.4,1.9-8.5,5.3-11.3L24.7,21.8z"/><linearGradient id="SVGID_00000124157325077525950950000006441030001007347854_" x1="14.321" x2="44.789" y1="69.445" y2="26.573" gradientTransform="matrix(1 0 0 -1 0 91.2365)" gradientUnits="userSpaceOnUse"><stop offset="0" style="stop-color:#1fd3ff"/><stop offset=".78" style="stop-color:#a43efa"/><stop offset=".998" style="stop-color:#09f"/></linearGradient><circle style="fill:url(#SVGID_00000124157325077525950950000006441030001007347854_)" cx="44.4" cy="64.2" r="1"/><linearGradient id="SVGID_00000139262000418797275560000010991637169236490414_" x1="5.16" x2="35.627" y1="62.934" y2="20.062" gradientTransform="matrix(1 0 0 -1 0 91.2365)" gradientUnits="userSpaceOnUse"><stop offset="0" style="stop-color:#1fd3ff"/><stop offset=".78" style="stop-color:#a43efa"/><stop offset=".998" style="stop-color:#09f"/></linearGradient><circle style="fill:url(#SVGID_00000139262000418797275560000010991637169236490414_)" cx="29.2" cy="62.1" r="1"/><linearGradient id="SVGID_00000146497501974489251470000000650021176757420674_" x1="9.543" x2="40.011" y1="66.049" y2="23.177" gradientTransform="matrix(1 0 0 -1 0 91.2365)" gradientUnits="userSpaceOnUse"><stop offset="0" style="stop-color:#1fd3ff"/><stop offset=".78" style="stop-color:#a43efa"/><stop offset=".998" style="stop-color:#09f"/></linearGradient><circle style="fill:url(#SVGID_00000146497501974489251470000000650021176757420674_)" cx="36.2" cy="62.7" r="1"/><linearGradient id="SVGID_00000108273154710457029770000004711935042406219654_" x1="20.096" x2="50.564" y1="73.549" y2="30.677" gradientTransform="matrix(1 0 0 -1 0 91.2365)" gradientUnits="userSpaceOnUse"><stop offset="0" style="stop-color:#1fd3ff"/><stop offset=".78" style="stop-color:#a43efa"/><stop offset=".998" style="stop-color:#09f"/></linearGradient><circle style="fill:url(#SVGID_00000108273154710457029770000004711935042406219654_)" cx="46.4" cy="54.7" r="1"/><linearGradient id="SVGID_00000003101299450070343210000010625021987284081315_" x1="17.013" x2="47.481" y1="71.358" y2="28.486" gradientTransform="matrix(1 0 0 -1 0 91.2365)" gradientUnits="userSpaceOnUse"><stop offset="0" style="stop-color:#1fd3ff"/><stop offset=".78" style="stop-color:#a43efa"/><stop offset=".998" style="stop-color:#09f"/></linearGradient><circle style="fill:url(#SVGID_00000003101299450070343210000010625021987284081315_)" cx="43" cy="56.4" r="1"/><linearGradient id="SVGID_00000121977252840407547480000003792713756000300198_" x1="21.838" x2="52.306" y1="74.787" y2="31.914" gradientTransform="matrix(1 0 0 -1 0 91.2365)" gradientUnits="userSpaceOnUse"><stop offset="0" style="stop-color:#1fd3ff"/><stop offset=".78" style="stop-color:#a43efa"/><stop offset=".998" style="stop-color:#09f"/></linearGradient><circle style="fill:url(#SVGID_00000121977252840407547480000003792713756000300198_)" cx="44.3" cy="48.1" r="1"/><linearGradient id="SVGID_00000093864805315180094850000016794949327374925245_" x1="17.457" x2="47.925" y1="71.674" y2="28.802" gradientTransform="matrix(1 0 0 -1 0 91.2365)" gradientUnits="userSpaceOnUse"><stop offset="0" style="stop-color:#1fd3ff"/><stop offset=".78" style="stop-color:#a43efa"/><stop offset=".998" style="stop-color:#09f"/></linearGradient><circle style="fill:url(#SVGID_00000093864805315180094850000016794949327374925245_)" cx="38.2" cy="48.7" r="1"/><linearGradient id="SVGID_00000130630330333301132920000001777383738491580804_" x1="5.401" x2="35.869" y1="63.106" y2="20.234" gradientTransform="matrix(1 0 0 -1 0 91.2365)" gradientUnits="userSpaceOnUse"><stop offset="0" style="stop-color:#1fd3ff"/><stop offset=".78" style="stop-color:#a43efa"/><stop offset=".998" style="stop-color:#09f"/></linearGradient><circle style="fill:url(#SVGID_00000130630330333301132920000001777383738491580804_)" cx="20.2" cy="49" r="1"/><linearGradient id="SVGID_00000008853879821620617910000015979414987490952099_" x1="5.336" x2="35.804" y1="63.06" y2="20.187" gradientTransform="matrix(1 0 0 -1 0 91.2365)" gradientUnits="userSpaceOnUse"><stop offset="0" style="stop-color:#1fd3ff"/><stop offset=".78" style="stop-color:#a43efa"/><stop offset=".998" style="stop-color:#09f"/></linearGradient><circle style="fill:url(#SVGID_00000008853879821620617910000015979414987490952099_)" cx="16.2" cy="43.4" r="1"/><linearGradient id="SVGID_00000077308644399595548070000016786430981662892189_" x1="10.056" x2="40.523" y1="66.414" y2="23.541" gradientTransform="matrix(1 0 0 -1 0 91.2365)" gradientUnits="userSpaceOnUse"><stop offset="0" style="stop-color:#1fd3ff"/><stop offset=".78" style="stop-color:#a43efa"/><stop offset=".998" style="stop-color:#09f"/></linearGradient><circle style="fill:url(#SVGID_00000077308644399595548070000016786430981662892189_)" cx="16.9" cy="34.5" r="1"/><linearGradient id="SVGID_00000177446256814810402960000002364514343446464664_" x1="12.812" x2="43.28" y1="68.373" y2="25.5" gradientTransform="matrix(1 0 0 -1 0 91.2365)" gradientUnits="userSpaceOnUse"><stop offset="0" style="stop-color:#1fd3ff"/><stop offset=".78" style="stop-color:#a43efa"/><stop offset=".998" style="stop-color:#09f"/></linearGradient><circle style="fill:url(#SVGID_00000177446256814810402960000002364514343446464664_)" cx="17.6" cy="29.6" r="1"/><linearGradient id="SVGID_00000115474739746803460710000015902673784613658528_" x1="17.988" x2="48.456" y1="72.051" y2="29.178" gradientTransform="matrix(1 0 0 -1 0 91.2365)" gradientUnits="userSpaceOnUse"><stop offset="0" style="stop-color:#1fd3ff"/><stop offset=".78" style="stop-color:#a43efa"/><stop offset=".998" style="stop-color:#09f"/></linearGradient><circle style="fill:url(#SVGID_00000115474739746803460710000015902673784613658528_)" cx="18.2" cy="19.5" r="1"/><linearGradient id="SVGID_00000128465085327918608980000010268884907764800646_" x1="13.743" x2="44.211" y1="69.034" y2="26.162" gradientTransform="matrix(1 0 0 -1 0 91.2365)" gradientUnits="userSpaceOnUse"><stop offset="0" style="stop-color:#1fd3ff"/><stop offset=".78" style="stop-color:#a43efa"/><stop offset=".998" style="stop-color:#09f"/></linearGradient><circle style="fill:url(#SVGID_00000128465085327918608980000010268884907764800646_)" cx="14.9" cy="23.8" r="1"/><linearGradient id="SVGID_00000168796704226354547730000010511720707326955696_" x1="3.863" x2="34.331" y1="62.013" y2="19.141" gradientTransform="matrix(1 0 0 -1 0 91.2365)" gradientUnits="userSpaceOnUse"><stop offset="0" style="stop-color:#1fd3ff"/><stop offset=".78" style="stop-color:#a43efa"/><stop offset=".998" style="stop-color:#09f"/></linearGradient><circle style="fill:url(#SVGID_00000168796704226354547730000010511720707326955696_)" cx="9" cy="36.5" r="1"/><linearGradient id="SVGID_00000098902995616340786870000015254918717493957017_" x1="6.619" x2="37.087" y1="63.971" y2="21.099" gradientTransform="matrix(1 0 0 -1 0 91.2365)" gradientUnits="userSpaceOnUse"><stop offset="0" style="stop-color:#1fd3ff"/><stop offset=".78" style="stop-color:#a43efa"/><stop offset=".998" style="stop-color:#09f"/></linearGradient><circle style="fill:url(#SVGID_00000098902995616340786870000015254918717493957017_)" cx="9.5" cy="31.3" r="1"/><linearGradient id="SVGID_00000088853382204423301600000009102312003428254367_" x1="-1.37" x2="29.098" y1="58.294" y2="15.422" gradientTransform="matrix(1 0 0 -1 0 91.2365)" gradientUnits="userSpaceOnUse"><stop offset="0" style="stop-color:#1fd3ff"/><stop offset=".78" style="stop-color:#a43efa"/><stop offset=".998" style="stop-color:#09f"/></linearGradient><circle style="fill:url(#SVGID_00000088853382204423301600000009102312003428254367_)" cx="8.3" cy="46.5" r="1"/><linearGradient id="SVGID_00000019678821107460557420000012595965904592050832_" x1="-2.146" x2="28.321" y1="57.742" y2="14.87" gradientTransform="matrix(1 0 0 -1 0 91.2365)" gradientUnits="userSpaceOnUse"><stop offset="0" style="stop-color:#1fd3ff"/><stop offset=".78" style="stop-color:#a43efa"/><stop offset=".998" style="stop-color:#09f"/></linearGradient><circle style="fill:url(#SVGID_00000019678821107460557420000012595965904592050832_)" cx="9.6" cy="50" r="1"/><linearGradient id="SVGID_00000054954573829364878120000009596614752886433194_" x1="21.367" x2="51.835" y1="74.453" y2="31.58" gradientTransform="matrix(1 0 0 -1 0 91.2365)" gradientUnits="userSpaceOnUse"><stop offset="0" style="stop-color:#1fd3ff"/><stop offset=".78" style="stop-color:#a43efa"/><stop offset=".998" style="stop-color:#09f"/></linearGradient><circle style="fill:url(#SVGID_00000054954573829364878120000009596614752886433194_)" cx="25.2" cy="22.2" r="1"/><linearGradient id="SVGID_00000016781504450023438890000003454665511524369557_" x1="26.799" x2="57.267" y1="78.313" y2="35.44" gradientTransform="matrix(1 0 0 -1 0 91.2365)" gradientUnits="userSpaceOnUse"><stop offset="0" style="stop-color:#1fd3ff"/><stop offset=".78" style="stop-color:#a43efa"/><stop offset=".998" style="stop-color:#09f"/></linearGradient><circle style="fill:url(#SVGID_00000016781504450023438890000003454665511524369557_)" cx="30.2" cy="17.7" r="1"/><linearGradient id="SVGID_00000165209359099141042860000009508682639617143184_" x1="44.671" x2="75.139" y1="91.014" y2="48.141" gradientTransform="matrix(1 0 0 -1 0 91.2365)" gradientUnits="userSpaceOnUse"><stop offset="0" style="stop-color:#1fd3ff"/><stop offset=".78" style="stop-color:#a43efa"/><stop offset=".998" style="stop-color:#09f"/></linearGradient><circle style="fill:url(#SVGID_00000165209359099141042860000009508682639617143184_)" cx="58" cy="19" r="1"/><linearGradient id="SVGID_00000174586943701470748940000010328163058706153646_" x1="56.083" x2="86.551" y1="99.124" y2="56.251" gradientTransform="matrix(1 0 0 -1 0 91.2365)" gradientUnits="userSpaceOnUse"><stop offset="0" style="stop-color:#1fd3ff"/><stop offset=".78" style="stop-color:#a43efa"/><stop offset=".998" style="stop-color:#09f"/></linearGradient><path style="fill:url(#SVGID_00000174586943701470748940000010328163058706153646_)" d="M90.3,16.7l-0.2,1.1 c9,1.5,15.6,9.2,15.6,18.3c0,10.2-8.3,18.6-18.6,18.6c-4.8,0-9.3-1.8-12.7-5l-0.8,0.8c3.7,3.5,8.5,5.4,13.5,5.4 c10.9,0,19.7-8.9,19.7-19.7C106.9,26.4,99.9,18.2,90.3,16.7z"/><linearGradient id="SVGID_00000109732892667310961390000008611734015105197749_" x1="65.053" x2="95.52" y1="105.498" y2="62.626" gradientTransform="matrix(1 0 0 -1 0 91.2365)" gradientUnits="userSpaceOnUse"><stop offset="0" style="stop-color:#1fd3ff"/><stop offset=".78" style="stop-color:#a43efa"/><stop offset=".998" style="stop-color:#09f"/></linearGradient><path style="fill:url(#SVGID_00000109732892667310961390000008611734015105197749_)" d="M86.6,18.7c-1.3,0-2.6,0.1-3.9,0.4 l0.3,1.1c1.2-0.3,2.4-0.4,3.7-0.4c3.9,0,7.7,1.4,10.7,4l0.8-0.9C94.9,20.2,90.8,18.7,86.6,18.7z"/><linearGradient id="SVGID_00000021100104134330346040000001553924907315900603_" x1="56.199" x2="86.667" y1="99.206" y2="56.333" gradientTransform="matrix(1 0 0 -1 0 91.2365)" gradientUnits="userSpaceOnUse"><stop offset="0" style="stop-color:#1fd3ff"/><stop offset=".78" style="stop-color:#a43efa"/><stop offset=".998" style="stop-color:#09f"/></linearGradient><path style="fill:url(#SVGID_00000021100104134330346040000001553924907315900603_)" d="M101.2,26.5l-1,0.6 c1.8,2.7,2.8,5.9,2.8,9.2c0,9.1-7.4,16.5-16.5,16.5c-2.8,0-5.6-0.7-8-2.1l-0.6,1c2.6,1.4,5.6,2.2,8.5,2.2 c9.7,0,17.7-7.9,17.7-17.7C104.3,32.8,103.2,29.4,101.2,26.5z"/><linearGradient id="SVGID_00000016065090004269783270000008517632192249577917_" x1="60.818" x2="91.286" y1="102.489" y2="59.616" gradientTransform="matrix(1 0 0 -1 0 91.2365)" gradientUnits="userSpaceOnUse"><stop offset="0" style="stop-color:#1fd3ff"/><stop offset=".78" style="stop-color:#a43efa"/><stop offset=".998" style="stop-color:#09f"/></linearGradient><path style="fill:url(#SVGID_00000016065090004269783270000008517632192249577917_)" d="M86.7,21.8c-3.6,0-7.2,1.3-9.9,3.7 l0.8,0.9c2.6-2.2,5.8-3.4,9.2-3.4c7.8,0,14.1,6.3,14.1,14.1c0,1.2-0.2,2.5-0.5,3.7l1.1,0.3c0.3-1.3,0.5-2.6,0.5-4 C102,28.7,95.1,21.8,86.7,21.8z"/><linearGradient id="SVGID_00000046332821685579909240000012920764304003069568_" x1="53.318" x2="83.786" y1="97.159" y2="54.286" gradientTransform="matrix(1 0 0 -1 0 91.2365)" gradientUnits="userSpaceOnUse"><stop offset="0" style="stop-color:#1fd3ff"/><stop offset=".78" style="stop-color:#a43efa"/><stop offset=".998" style="stop-color:#09f"/></linearGradient><path style="fill:url(#SVGID_00000046332821685579909240000012920764304003069568_)" d="M99.1,43.9c-2.5,4.5-7.2,7.4-12.4,7.4 c-1,0-1.9-0.1-2.9-0.3l-0.2,1.1c1,0.2,2,0.3,3.1,0.3c5.6,0,10.7-3.1,13.4-8L99.1,43.9z"/><linearGradient id="SVGID_00000123405003158794969070000005402634605695842480_" x1="58.738" x2="89.206" y1="101.011" y2="58.138" gradientTransform="matrix(1 0 0 -1 0 91.2365)" gradientUnits="userSpaceOnUse"><stop offset="0" style="stop-color:#1fd3ff"/><stop offset=".78" style="stop-color:#a43efa"/><stop offset=".998" style="stop-color:#09f"/></linearGradient><path style="fill:url(#SVGID_00000123405003158794969070000005402634605695842480_)" d="M86.4,25.3c-3.4,0-6.6,1.3-9,3.7 l0.8,0.8c2.2-2.2,5.1-3.4,8.2-3.4c2.9,0,5.6,1,7.7,2.9l0.8-0.9C92.5,26.4,89.5,25.3,86.4,25.3z"/><linearGradient id="SVGID_00000147209346213094682500000013423577860489123516_" x1="56.606" x2="87.074" y1="99.496" y2="56.623" gradientTransform="matrix(1 0 0 -1 0 91.2365)" gradientUnits="userSpaceOnUse"><stop offset="0" style="stop-color:#1fd3ff"/><stop offset=".78" style="stop-color:#a43efa"/><stop offset=".998" style="stop-color:#09f"/></linearGradient><path style="fill:url(#SVGID_00000147209346213094682500000013423577860489123516_)" d="M98,32.7l-1.1,0.5c0.7,1.5,1,3.1,1,4.8 c0,5.4-3.7,10.1-8.9,11.3c-0.9,0.2-1.8,0.3-2.6,0.3v1.2c1,0,2-0.1,2.9-0.3c5.8-1.4,9.8-6.5,9.8-12.4C99.1,36.2,98.7,34.4,98,32.7 z"/><linearGradient id="SVGID_00000145754160642029638110000013015964174430142341_" x1="36.722" x2="67.19" y1="85.365" y2="42.492" gradientTransform="matrix(1 0 0 -1 0 91.2365)" gradientUnits="userSpaceOnUse"><stop offset="0" style="stop-color:#1fd3ff"/><stop offset=".78" style="stop-color:#a43efa"/><stop offset=".998" style="stop-color:#09f"/></linearGradient><path style="fill:url(#SVGID_00000145754160642029638110000013015964174430142341_)" d="M78,28.3c-4.9,4.6-9.5,10.9-14,17 c-2.9,3.9-5.6,7.7-8.1,10.5c-1.7,1.9-3.6,3.6-5.7,5l0.6,1c2.2-1.5,4.2-3.2,5.9-5.2c2.6-2.9,5.3-6.6,8.2-10.6 c4.4-6,9-12.3,13.8-16.8L78,28.3z"/><linearGradient id="SVGID_00000171684003059475902830000008374070508229977781_" x1="54.371" x2="84.839" y1="97.907" y2="55.035" gradientTransform="matrix(1 0 0 -1 0 91.2365)" gradientUnits="userSpaceOnUse"><stop offset="0" style="stop-color:#1fd3ff"/><stop offset=".78" style="stop-color:#a43efa"/><stop offset=".998" style="stop-color:#09f"/></linearGradient><circle style="fill:url(#SVGID_00000171684003059475902830000008374070508229977781_)" cx="77.4" cy="25.8" r="1"/><linearGradient id="SVGID_00000127737458893323865750000009295947756903065758_" x1="40.635" x2="71.103" y1="88.145" y2="45.273" gradientTransform="matrix(1 0 0 -1 0 91.2365)" gradientUnits="userSpaceOnUse"><stop offset="0" style="stop-color:#1fd3ff"/><stop offset=".78" style="stop-color:#a43efa"/><stop offset=".998" style="stop-color:#09f"/></linearGradient><circle style="fill:url(#SVGID_00000127737458893323865750000009295947756903065758_)" cx="74.2" cy="50.3" r="1"/><linearGradient id="SVGID_00000114061686890567725500000017415327767646636933_" x1="42.985" x2="73.453" y1="89.815" y2="46.943" gradientTransform="matrix(1 0 0 -1 0 91.2365)" gradientUnits="userSpaceOnUse"><stop offset="0" style="stop-color:#1fd3ff"/><stop offset=".78" style="stop-color:#a43efa"/><stop offset=".998" style="stop-color:#09f"/></linearGradient><circle style="fill:url(#SVGID_00000114061686890567725500000017415327767646636933_)" cx="78.5" cy="51.3" r="1"/><linearGradient id="SVGID_00000031179618013772838720000002644159746544576694_" x1="46.401" x2="76.869" y1="92.243" y2="49.371" gradientTransform="matrix(1 0 0 -1 0 91.2365)" gradientUnits="userSpaceOnUse"><stop offset="0" style="stop-color:#1fd3ff"/><stop offset=".78" style="stop-color:#a43efa"/><stop offset=".998" style="stop-color:#09f"/></linearGradient><circle style="fill:url(#SVGID_00000031179618013772838720000002644159746544576694_)" cx="83.7" cy="51.5" r="1"/><linearGradient id="SVGID_00000044156474671210272840000011545996914476259495_" x1="48.873" x2="79.341" y1="94" y2="51.127" gradientTransform="matrix(1 0 0 -1 0 91.2365)" gradientUnits="userSpaceOnUse"><stop offset="0" style="stop-color:#1fd3ff"/><stop offset=".78" style="stop-color:#a43efa"/><stop offset=".998" style="stop-color:#09f"/></linearGradient><circle style="fill:url(#SVGID_00000044156474671210272840000011545996914476259495_)" cx="86.4" cy="50.1" r="1"/><linearGradient id="SVGID_00000169527231570805773510000002285911345533779121_" x1="60.976" x2="91.444" y1="102.601" y2="59.728" gradientTransform="matrix(1 0 0 -1 0 91.2365)" gradientUnits="userSpaceOnUse"><stop offset="0" style="stop-color:#1fd3ff"/><stop offset=".78" style="stop-color:#a43efa"/><stop offset=".998" style="stop-color:#09f"/></linearGradient><circle style="fill:url(#SVGID_00000169527231570805773510000002285911345533779121_)" cx="83" cy="19.6" r="1"/><linearGradient id="SVGID_00000154418109764688870480000003657047209065885073_" x1="62.432" x2="92.9" y1="105.049" y2="62.176" gradientTransform="matrix(1 0 0 -1 0 91.2365)" gradientUnits="userSpaceOnUse"><stop offset="0" style="stop-color:#1fd3ff"/><stop offset=".78" style="stop-color:#a43efa"/><stop offset=".998" style="stop-color:#09f"/></linearGradient><circle style="fill:url(#SVGID_00000154418109764688870480000003657047209065885073_)" cx="84.5" cy="17.2" r="1"/><linearGradient id="SVGID_00000157994442872817673900000016813438143163997108_" x1="68.213" x2="98.681" y1="105.049" y2="62.176" gradientTransform="matrix(1 0 0 -1 0 91.2365)" gradientUnits="userSpaceOnUse"><stop offset="0" style="stop-color:#1fd3ff"/><stop offset=".78" style="stop-color:#a43efa"/><stop offset=".998" style="stop-color:#09f"/></linearGradient><circle style="fill:url(#SVGID_00000157994442872817673900000016813438143163997108_)" cx="90.3" cy="17.2" r="1"/><linearGradient id="SVGID_00000119080564449845108020000003780656660522378150_" x1="64.18" x2="94.648" y1="104.878" y2="62.005" gradientTransform="matrix(1 0 0 -1 0 91.2365)" gradientUnits="userSpaceOnUse"><stop offset="0" style="stop-color:#1fd3ff"/><stop offset=".78" style="stop-color:#a43efa"/><stop offset=".998" style="stop-color:#09f"/></linearGradient><circle style="fill:url(#SVGID_00000119080564449845108020000003780656660522378150_)" cx="94.5" cy="29" r="1"/><linearGradient id="SVGID_00000179644297811887635710000004361772835812570257_" x1="64.192" x2="94.66" y1="104.887" y2="62.014" gradientTransform="matrix(1 0 0 -1 0 91.2365)" gradientUnits="userSpaceOnUse"><stop offset="0" style="stop-color:#1fd3ff"/><stop offset=".78" style="stop-color:#a43efa"/><stop offset=".998" style="stop-color:#09f"/></linearGradient><circle style="fill:url(#SVGID_00000179644297811887635710000004361772835812570257_)" cx="97.4" cy="33.1" r="1"/><linearGradient id="SVGID_00000026160111018830934220000005289735984020827800_" x1="69.473" x2="99.941" y1="108.639" y2="65.767" gradientTransform="matrix(1 0 0 -1 0 91.2365)" gradientUnits="userSpaceOnUse"><stop offset="0" style="stop-color:#1fd3ff"/><stop offset=".78" style="stop-color:#a43efa"/><stop offset=".998" style="stop-color:#09f"/></linearGradient><circle style="fill:url(#SVGID_00000026160111018830934220000005289735984020827800_)" cx="100.9" cy="26.8" r="1"/><linearGradient id="SVGID_00000132792737558753546340000009541936971879656864_" x1="68.962" x2="99.429" y1="108.276" y2="65.403" gradientTransform="matrix(1 0 0 -1 0 91.2365)" gradientUnits="userSpaceOnUse"><stop offset="0" style="stop-color:#1fd3ff"/><stop offset=".78" style="stop-color:#a43efa"/><stop offset=".998" style="stop-color:#09f"/></linearGradient><circle style="fill:url(#SVGID_00000132792737558753546340000009541936971879656864_)" cx="97.7" cy="23.4" r="1"/><linearGradient id="SVGID_00000153678067356817788740000005452157060560461237_" x1="62.741" x2="93.209" y1="103.856" y2="60.983" gradientTransform="matrix(1 0 0 -1 0 91.2365)" gradientUnits="userSpaceOnUse"><stop offset="0" style="stop-color:#1fd3ff"/><stop offset=".78" style="stop-color:#a43efa"/><stop offset=".998" style="stop-color:#09f"/></linearGradient><circle style="fill:url(#SVGID_00000153678067356817788740000005452157060560461237_)" cx="100.9" cy="41.1" r="1"/><linearGradient id="SVGID_00000138543329070806503850000006110888776584774321_" x1="60.155" x2="90.623" y1="102.017" y2="59.145" gradientTransform="matrix(1 0 0 -1 0 91.2365)" gradientUnits="userSpaceOnUse"><stop offset="0" style="stop-color:#1fd3ff"/><stop offset=".78" style="stop-color:#a43efa"/><stop offset=".998" style="stop-color:#09f"/></linearGradient><circle style="fill:url(#SVGID_00000138543329070806503850000006110888776584774321_)" cx="99.5" cy="44.5" r="1"/></g></g></g><path d="M246.9,56.2v-3.8h-0.1c-0.7,1.3-1.6,2.3-2.8,3c-1.2,0.7-2.6,1.1-4.2,1.1c-1.2,0-2.4-0.2-3.3-0.7	c-1-0.4-1.8-1-2.5-1.8c-0.7-0.7-1.2-1.6-1.6-2.5c-0.4-1-0.5-1.9-0.5-3c0-1,0.2-2,0.6-3c0.4-1,0.9-1.8,1.6-2.5	c0.7-0.7,1.5-1.3,2.5-1.8c1-0.4,2.1-0.7,3.3-0.7h7.9v15.5H246.9z M246.9,41.4h-7.1c-1,0-1.9,0.2-2.8,0.5c-0.9,0.4-1.6,0.8-2.3,1.5	c-0.7,0.6-1.2,1.4-1.5,2.3c-0.4,0.9-0.6,1.9-0.6,2.9c0,0.9,0.1,1.7,0.4,2.6s0.7,1.6,1.3,2.3c0.6,0.7,1.4,1.2,2.3,1.7	c0.9,0.4,2,0.6,3.2,0.6c1,0,2-0.2,2.9-0.6c0.9-0.4,1.6-0.9,2.2-1.6c0.6-0.7,1.1-1.4,1.5-2.3C246.8,50.5,246.9,47.2,246.9,41.4z" class="st0"/><path d="M239.8,57c-1.3,0-2.5-0.2-3.5-0.7c-1-0.5-1.9-1.1-2.6-1.9s-1.3-1.7-1.7-2.7c-0.4-1-0.6-2-0.6-3.1	c0-1.1,0.2-2.2,0.6-3.2c0.4-1,1-1.9,1.7-2.7c0.7-0.8,1.6-1.4,2.6-1.9c1-0.5,2.2-0.7,3.5-0.7h8.3v16.4h-1.7v-2.8	c-0.6,0.8-1.3,1.5-2.2,2C243,56.6,241.5,57,239.8,57z M239.8,41.8c-0.9,0-1.8,0.2-2.6,0.5c-0.8,0.3-1.5,0.8-2.1,1.4	c-0.6,0.6-1.1,1.3-1.4,2.1c-0.3,0.8-0.5,1.8-0.5,2.8c0,0.8,0.1,1.6,0.4,2.4c0.3,0.8,0.7,1.5,1.3,2.2c0.6,0.6,1.3,1.2,2.1,1.6	c0.9,0.4,1.9,0.6,3,0.6c1,0,1.9-0.2,2.7-0.5c0.8-0.4,1.5-0.8,2.1-1.5c0.6-0.6,1-1.3,1.4-2.2c0.2-0.6,0.5-2.6,0.4-9.4H239.8z M246.7,52l0.6,0v-4c-0.1,2.4-0.3,3.2-0.4,3.5C246.8,51.7,246.7,51.8,246.7,52z" class="st1"/><text class="st68 st69 st70" transform="matrix(1 0 0 1 115.0006 28.9301)">APACHE</text></svg>