<svg xmlns="http://www.w3.org/2000/svg" xmlns:xlink="http://www.w3.org/1999/xlink" width="234.766" height="200" class="icon" p-id="7503" t="1619084088051" version="1.1" viewBox="0 0 1202 1024"><defs><style type="text/css"/></defs><path fill="#1890ff" d="M133.565217 0h934.956522a133.565217 133.565217 0 0 1 133.565218 133.565217v756.869566a133.565217 133.565217 0 0 1-133.565218 133.565217H133.565217a133.565217 133.565217 0 0 1-133.565217-133.565217V133.565217a133.565217 133.565217 0 0 1 133.565217-133.565217z m0 89.043478a44.521739 44.521739 0 0 0-44.521739 44.521739v756.869566a44.521739 44.521739 0 0 0 44.521739 44.521739h934.956522a44.521739 44.521739 0 0 0 44.521739-44.521739V133.565217a44.521739 44.521739 0 0 0-44.521739-44.521739H133.565217z m747.965218 311.652174H1001.73913v445.217391H200.347826V400.695652h115.756522v-111.304348h124.660869V178.086957h320.556522v111.304347h120.208696v111.304348zM289.391304 489.73913v267.130435h623.304348V489.73913h-120.208695v-111.304347h-120.208696v-111.304348h-142.469565v111.304348h-124.66087v111.304347H289.391304z m66.782609 89.043479a44.521739 44.521739 0 1 1 89.043478 0v89.043478a44.521739 44.521739 0 1 1-89.043478 0v-89.043478z m133.565217 0a44.521739 44.521739 0 1 1 89.043479 0v89.043478a44.521739 44.521739 0 1 1-89.043479 0v-89.043478z m133.565218 0a44.521739 44.521739 0 1 1 89.043478 0v89.043478a44.521739 44.521739 0 1 1-89.043478 0v-89.043478z m133.565217 0a44.521739 44.521739 0 1 1 89.043478 0v89.043478a44.521739 44.521739 0 1 1-89.043478 0v-89.043478z" p-id="7504"/></svg>