<svg xmlns="http://www.w3.org/2000/svg" xmlns:xlink="http://www.w3.org/1999/xlink" width="200" height="200" class="icon" p-id="3676" t="1625734109822" version="1.1" viewBox="0 0 1024 1024"><defs><style type="text/css"/></defs><path fill="#1890ff" d="M621.6 611.2C847 647.5 912 805.4 912 862.8c0 78.5-275.5 97.2-400 97.2s-400-18.7-400-97.2c0-56.4 64.1-217.4 289.6-251.6C416 609 435 563.3 422.7 555 348.8 504.9 292 418.1 292 278.1 292 158.8 383.3 64 512 64s220 94.8 220 214.1c0 137.9-59.8 226.8-133.9 277.4-11.4 7.9 9.3 53.4 23.5 55.7z m0 0" p-id="3677"/></svg>